# xmcd
#
# Track frame offsets: 
#        150
#        21055
#        59111
#        94162
#        137806
#        169270
#        209764
#
# Disc length: 3254 seconds
#
# Revision: 0
# Processed by: cddbd v1.5.2PL0 Copyright (c) Steve Scherf et al.
# Submitted via: ExactAudioCopy v0.99pb4
#
DISCID=6a0cb407
DTITLE=Vince Vallicelli - New Blues
DYEAR=2004
DGENRE=Blues
TTITLE0=New Blues
TTITLE1=Watermelon Man
TTITLE2=Night Train
TTITLE3=Whisky and Women
TTITLE4=I got the feeling
TTITLE5=Lowrider on the boulevard
TTITLE6=Are Are
EXTD=
EXTT0=
EXTT1=
EXTT2=
EXTT3=
EXTT4=
EXTT5=
EXTT6=
PLAYORDER=
